<mxfile host="app.diagrams.net" modified="2023-04-01T09:48:15.753Z" agent="Mozilla/5.0 (Macintosh; Intel Mac OS X 10_15_7) AppleWebKit/537.36 (KHTML, like Gecko) Chrome/112.0.0.0 Safari/537.36 Edg/112.0.1722.15" etag="T7_GeiVDoyaTCrH6fZmo" version="21.1.2" type="github">
  <diagram name="第 1 页" id="OP_yHYJMvjxMpntvtBz8">
    <mxGraphModel dx="460" dy="1971" grid="1" gridSize="10" guides="1" tooltips="1" connect="1" arrows="1" fold="1" page="1" pageScale="1" pageWidth="827" pageHeight="1169" math="0" shadow="0">
      <root>
        <mxCell id="0" />
        <mxCell id="1" parent="0" />
        <mxCell id="O_gSHpBDC29Nt3ueIfay-5" value="" style="edgeStyle=orthogonalEdgeStyle;rounded=0;orthogonalLoop=1;jettySize=auto;html=1;" edge="1" parent="1" source="O_gSHpBDC29Nt3ueIfay-1" target="O_gSHpBDC29Nt3ueIfay-4">
          <mxGeometry relative="1" as="geometry" />
        </mxCell>
        <mxCell id="O_gSHpBDC29Nt3ueIfay-1" value="用户" style="rounded=0;whiteSpace=wrap;html=1;" vertex="1" parent="1">
          <mxGeometry x="380" y="-173.5" width="100" height="50" as="geometry" />
        </mxCell>
        <mxCell id="O_gSHpBDC29Nt3ueIfay-7" value="" style="edgeStyle=orthogonalEdgeStyle;rounded=0;orthogonalLoop=1;jettySize=auto;html=1;" edge="1" parent="1" source="O_gSHpBDC29Nt3ueIfay-4" target="O_gSHpBDC29Nt3ueIfay-6">
          <mxGeometry relative="1" as="geometry" />
        </mxCell>
        <mxCell id="O_gSHpBDC29Nt3ueIfay-4" value="创建" style="rhombus;whiteSpace=wrap;html=1;rounded=0;" vertex="1" parent="1">
          <mxGeometry x="390" y="-318.5" width="80" height="80" as="geometry" />
        </mxCell>
        <mxCell id="O_gSHpBDC29Nt3ueIfay-9" value="" style="edgeStyle=orthogonalEdgeStyle;rounded=0;orthogonalLoop=1;jettySize=auto;html=1;" edge="1" parent="1" source="O_gSHpBDC29Nt3ueIfay-6" target="O_gSHpBDC29Nt3ueIfay-8">
          <mxGeometry relative="1" as="geometry" />
        </mxCell>
        <mxCell id="O_gSHpBDC29Nt3ueIfay-31" value="1" style="edgeLabel;html=1;align=center;verticalAlign=middle;resizable=0;points=[];" vertex="1" connectable="0" parent="O_gSHpBDC29Nt3ueIfay-9">
          <mxGeometry x="0.0961" y="1" relative="1" as="geometry">
            <mxPoint as="offset" />
          </mxGeometry>
        </mxCell>
        <mxCell id="O_gSHpBDC29Nt3ueIfay-18" value="" style="edgeStyle=orthogonalEdgeStyle;rounded=0;orthogonalLoop=1;jettySize=auto;html=1;" edge="1" parent="1" source="O_gSHpBDC29Nt3ueIfay-6" target="O_gSHpBDC29Nt3ueIfay-17">
          <mxGeometry relative="1" as="geometry" />
        </mxCell>
        <mxCell id="O_gSHpBDC29Nt3ueIfay-21" value="1" style="edgeLabel;html=1;align=center;verticalAlign=middle;resizable=0;points=[];" vertex="1" connectable="0" parent="O_gSHpBDC29Nt3ueIfay-18">
          <mxGeometry x="-0.288" relative="1" as="geometry">
            <mxPoint as="offset" />
          </mxGeometry>
        </mxCell>
        <mxCell id="O_gSHpBDC29Nt3ueIfay-39" value="" style="edgeStyle=orthogonalEdgeStyle;rounded=0;orthogonalLoop=1;jettySize=auto;html=1;" edge="1" parent="1" source="O_gSHpBDC29Nt3ueIfay-6" target="O_gSHpBDC29Nt3ueIfay-38">
          <mxGeometry relative="1" as="geometry" />
        </mxCell>
        <mxCell id="O_gSHpBDC29Nt3ueIfay-50" value="1" style="edgeLabel;html=1;align=center;verticalAlign=middle;resizable=0;points=[];" vertex="1" connectable="0" parent="O_gSHpBDC29Nt3ueIfay-39">
          <mxGeometry x="-0.1294" relative="1" as="geometry">
            <mxPoint as="offset" />
          </mxGeometry>
        </mxCell>
        <mxCell id="O_gSHpBDC29Nt3ueIfay-6" value="ECR" style="whiteSpace=wrap;html=1;rounded=0;" vertex="1" parent="1">
          <mxGeometry x="385" y="-453.5" width="90" height="45" as="geometry" />
        </mxCell>
        <mxCell id="O_gSHpBDC29Nt3ueIfay-12" value="" style="edgeStyle=orthogonalEdgeStyle;rounded=0;orthogonalLoop=1;jettySize=auto;html=1;" edge="1" parent="1" source="O_gSHpBDC29Nt3ueIfay-8" target="O_gSHpBDC29Nt3ueIfay-11">
          <mxGeometry relative="1" as="geometry" />
        </mxCell>
        <mxCell id="O_gSHpBDC29Nt3ueIfay-32" value="1" style="edgeLabel;html=1;align=center;verticalAlign=middle;resizable=0;points=[];" vertex="1" connectable="0" parent="O_gSHpBDC29Nt3ueIfay-12">
          <mxGeometry x="-0.0319" y="3" relative="1" as="geometry">
            <mxPoint as="offset" />
          </mxGeometry>
        </mxCell>
        <mxCell id="O_gSHpBDC29Nt3ueIfay-8" value="链接" style="rhombus;whiteSpace=wrap;html=1;rounded=0;" vertex="1" parent="1">
          <mxGeometry x="560" y="-471" width="80" height="80" as="geometry" />
        </mxCell>
        <mxCell id="O_gSHpBDC29Nt3ueIfay-14" value="" style="edgeStyle=orthogonalEdgeStyle;rounded=0;orthogonalLoop=1;jettySize=auto;html=1;" edge="1" parent="1" source="O_gSHpBDC29Nt3ueIfay-11" target="O_gSHpBDC29Nt3ueIfay-13">
          <mxGeometry relative="1" as="geometry" />
        </mxCell>
        <mxCell id="O_gSHpBDC29Nt3ueIfay-30" value="1" style="edgeLabel;html=1;align=center;verticalAlign=middle;resizable=0;points=[];" vertex="1" connectable="0" parent="O_gSHpBDC29Nt3ueIfay-14">
          <mxGeometry x="-0.3157" y="-2" relative="1" as="geometry">
            <mxPoint as="offset" />
          </mxGeometry>
        </mxCell>
        <mxCell id="O_gSHpBDC29Nt3ueIfay-11" value="Capital项目" style="whiteSpace=wrap;html=1;rounded=0;" vertex="1" parent="1">
          <mxGeometry x="700" y="-457.25" width="90" height="52.5" as="geometry" />
        </mxCell>
        <mxCell id="O_gSHpBDC29Nt3ueIfay-16" value="" style="edgeStyle=orthogonalEdgeStyle;rounded=0;orthogonalLoop=1;jettySize=auto;html=1;" edge="1" parent="1" source="O_gSHpBDC29Nt3ueIfay-13" target="O_gSHpBDC29Nt3ueIfay-15">
          <mxGeometry relative="1" as="geometry" />
        </mxCell>
        <mxCell id="O_gSHpBDC29Nt3ueIfay-27" value="n" style="edgeLabel;html=1;align=center;verticalAlign=middle;resizable=0;points=[];" vertex="1" connectable="0" parent="O_gSHpBDC29Nt3ueIfay-16">
          <mxGeometry x="-0.2248" y="-1" relative="1" as="geometry">
            <mxPoint as="offset" />
          </mxGeometry>
        </mxCell>
        <mxCell id="O_gSHpBDC29Nt3ueIfay-13" value="选择" style="rhombus;whiteSpace=wrap;html=1;rounded=0;" vertex="1" parent="1">
          <mxGeometry x="705" y="-603.5" width="80" height="80" as="geometry" />
        </mxCell>
        <mxCell id="O_gSHpBDC29Nt3ueIfay-15" value="Capital设计" style="whiteSpace=wrap;html=1;rounded=0;" vertex="1" parent="1">
          <mxGeometry x="697.5" y="-741" width="95" height="50" as="geometry" />
        </mxCell>
        <mxCell id="O_gSHpBDC29Nt3ueIfay-20" value="n" style="edgeStyle=orthogonalEdgeStyle;rounded=0;orthogonalLoop=1;jettySize=auto;html=1;" edge="1" parent="1" source="O_gSHpBDC29Nt3ueIfay-17" target="O_gSHpBDC29Nt3ueIfay-19">
          <mxGeometry relative="1" as="geometry" />
        </mxCell>
        <mxCell id="O_gSHpBDC29Nt3ueIfay-17" value="创建" style="rhombus;whiteSpace=wrap;html=1;rounded=0;" vertex="1" parent="1">
          <mxGeometry x="390" y="-596" width="80" height="80" as="geometry" />
        </mxCell>
        <mxCell id="O_gSHpBDC29Nt3ueIfay-25" value="" style="edgeStyle=orthogonalEdgeStyle;rounded=0;orthogonalLoop=1;jettySize=auto;html=1;" edge="1" parent="1" source="O_gSHpBDC29Nt3ueIfay-19" target="O_gSHpBDC29Nt3ueIfay-24">
          <mxGeometry relative="1" as="geometry" />
        </mxCell>
        <mxCell id="O_gSHpBDC29Nt3ueIfay-29" value="1" style="edgeLabel;html=1;align=center;verticalAlign=middle;resizable=0;points=[];" vertex="1" connectable="0" parent="O_gSHpBDC29Nt3ueIfay-25">
          <mxGeometry x="-0.0262" y="-1" relative="1" as="geometry">
            <mxPoint as="offset" />
          </mxGeometry>
        </mxCell>
        <mxCell id="O_gSHpBDC29Nt3ueIfay-34" value="1" style="edgeStyle=orthogonalEdgeStyle;rounded=0;orthogonalLoop=1;jettySize=auto;html=1;" edge="1" parent="1" source="O_gSHpBDC29Nt3ueIfay-19" target="O_gSHpBDC29Nt3ueIfay-33">
          <mxGeometry relative="1" as="geometry" />
        </mxCell>
        <mxCell id="O_gSHpBDC29Nt3ueIfay-19" value="ECO" style="whiteSpace=wrap;html=1;rounded=0;" vertex="1" parent="1">
          <mxGeometry x="370" y="-746" width="120" height="60" as="geometry" />
        </mxCell>
        <mxCell id="O_gSHpBDC29Nt3ueIfay-26" style="edgeStyle=orthogonalEdgeStyle;rounded=0;orthogonalLoop=1;jettySize=auto;html=1;" edge="1" parent="1" source="O_gSHpBDC29Nt3ueIfay-24" target="O_gSHpBDC29Nt3ueIfay-15">
          <mxGeometry relative="1" as="geometry" />
        </mxCell>
        <mxCell id="O_gSHpBDC29Nt3ueIfay-28" value="n" style="edgeLabel;html=1;align=center;verticalAlign=middle;resizable=0;points=[];" vertex="1" connectable="0" parent="O_gSHpBDC29Nt3ueIfay-26">
          <mxGeometry x="-0.1043" y="1" relative="1" as="geometry">
            <mxPoint as="offset" />
          </mxGeometry>
        </mxCell>
        <mxCell id="O_gSHpBDC29Nt3ueIfay-24" value="链接" style="rhombus;whiteSpace=wrap;html=1;rounded=0;" vertex="1" parent="1">
          <mxGeometry x="560" y="-756" width="80" height="80" as="geometry" />
        </mxCell>
        <mxCell id="O_gSHpBDC29Nt3ueIfay-36" value="" style="edgeStyle=orthogonalEdgeStyle;rounded=0;orthogonalLoop=1;jettySize=auto;html=1;" edge="1" parent="1" source="O_gSHpBDC29Nt3ueIfay-33" target="O_gSHpBDC29Nt3ueIfay-35">
          <mxGeometry relative="1" as="geometry" />
        </mxCell>
        <mxCell id="O_gSHpBDC29Nt3ueIfay-37" value="n" style="edgeLabel;html=1;align=center;verticalAlign=middle;resizable=0;points=[];" vertex="1" connectable="0" parent="O_gSHpBDC29Nt3ueIfay-36">
          <mxGeometry x="0.0488" y="2" relative="1" as="geometry">
            <mxPoint as="offset" />
          </mxGeometry>
        </mxCell>
        <mxCell id="O_gSHpBDC29Nt3ueIfay-33" value="创建" style="rhombus;whiteSpace=wrap;html=1;rounded=0;" vertex="1" parent="1">
          <mxGeometry x="390" y="-896" width="80" height="80" as="geometry" />
        </mxCell>
        <mxCell id="O_gSHpBDC29Nt3ueIfay-35" value="ECO属性" style="whiteSpace=wrap;html=1;rounded=0;" vertex="1" parent="1">
          <mxGeometry x="370" y="-1046" width="120" height="60" as="geometry" />
        </mxCell>
        <mxCell id="O_gSHpBDC29Nt3ueIfay-41" value="n" style="edgeStyle=orthogonalEdgeStyle;rounded=0;orthogonalLoop=1;jettySize=auto;html=1;" edge="1" parent="1" source="O_gSHpBDC29Nt3ueIfay-38" target="O_gSHpBDC29Nt3ueIfay-40">
          <mxGeometry relative="1" as="geometry" />
        </mxCell>
        <mxCell id="O_gSHpBDC29Nt3ueIfay-38" value="创建" style="rhombus;whiteSpace=wrap;html=1;rounded=0;" vertex="1" parent="1">
          <mxGeometry x="220" y="-471" width="80" height="80" as="geometry" />
        </mxCell>
        <mxCell id="O_gSHpBDC29Nt3ueIfay-44" value="" style="edgeStyle=orthogonalEdgeStyle;rounded=0;orthogonalLoop=1;jettySize=auto;html=1;" edge="1" parent="1" source="O_gSHpBDC29Nt3ueIfay-40" target="O_gSHpBDC29Nt3ueIfay-43">
          <mxGeometry relative="1" as="geometry" />
        </mxCell>
        <mxCell id="O_gSHpBDC29Nt3ueIfay-49" value="1" style="edgeLabel;html=1;align=center;verticalAlign=middle;resizable=0;points=[];" vertex="1" connectable="0" parent="O_gSHpBDC29Nt3ueIfay-44">
          <mxGeometry x="-0.1959" y="-1" relative="1" as="geometry">
            <mxPoint as="offset" />
          </mxGeometry>
        </mxCell>
        <mxCell id="O_gSHpBDC29Nt3ueIfay-40" value="ECR原由" style="whiteSpace=wrap;html=1;rounded=0;" vertex="1" parent="1">
          <mxGeometry x="40" y="-461" width="120" height="60" as="geometry" />
        </mxCell>
        <mxCell id="O_gSHpBDC29Nt3ueIfay-42" value="原由模板" style="whiteSpace=wrap;html=1;rounded=0;" vertex="1" parent="1">
          <mxGeometry x="40" y="-746" width="120" height="60" as="geometry" />
        </mxCell>
        <mxCell id="O_gSHpBDC29Nt3ueIfay-45" style="edgeStyle=orthogonalEdgeStyle;rounded=0;orthogonalLoop=1;jettySize=auto;html=1;entryX=0.5;entryY=1;entryDx=0;entryDy=0;" edge="1" parent="1" source="O_gSHpBDC29Nt3ueIfay-43" target="O_gSHpBDC29Nt3ueIfay-42">
          <mxGeometry relative="1" as="geometry" />
        </mxCell>
        <mxCell id="O_gSHpBDC29Nt3ueIfay-48" value="1" style="edgeLabel;html=1;align=center;verticalAlign=middle;resizable=0;points=[];" vertex="1" connectable="0" parent="O_gSHpBDC29Nt3ueIfay-45">
          <mxGeometry x="0.0552" y="-3" relative="1" as="geometry">
            <mxPoint as="offset" />
          </mxGeometry>
        </mxCell>
        <mxCell id="O_gSHpBDC29Nt3ueIfay-43" value="选择" style="rhombus;whiteSpace=wrap;html=1;rounded=0;" vertex="1" parent="1">
          <mxGeometry x="60" y="-611" width="80" height="80" as="geometry" />
        </mxCell>
      </root>
    </mxGraphModel>
  </diagram>
</mxfile>
